<svg width="300" height="300" viewBox="0 0 300 300" xmlns="http://www.w3.org/2000/svg">
  <defs>
    <linearGradient id="grad1" x1="0%" y1="0%" x2="100%" y2="100%">
      <stop offset="0%" style="stop-color:#FF5733;stop-opacity:1" />
      <stop offset="100%" style="stop-color:#C70039;stop-opacity:1" />
    </linearGradient>
    <linearGradient id="grad2" x1="0%" y1="0%" x2="100%" y2="100%">
      <stop offset="0%" style="stop-color:#900C3F;stop-opacity:1" />
      <stop offset="100%" style="stop-color:#581845;stop-opacity:1" />
    </linearGradient>
  </defs>
  <g transform="translate(150,150)">
    <polygon points="0,-130 112.6,-65 112.6,65 0,130 -112.6,65 -112.6,-65" fill="url(#grad1)" stroke="#2C003E" stroke-width="3"/>
    <polygon points="0,-90 78,-45 78,45 0,90 -78,45 -78,-45" fill="url(#grad2)" stroke="#2C003E" stroke-width="3"/>
    <line x1="0" y1="-130" x2="0" y2="130" stroke="#2C003E" stroke-width="3"/>
    <line x1="-112.6" y1="-65" x2="112.6" y2="65" stroke="#2C003E" stroke-width="3"/>
    <line x1="-112.6" y1="65" x2="112.6" y2="-65" stroke="#2C003E" stroke-width="3"/>
    <circle cx="0" cy="0" r="30" fill="url(#grad1)" stroke="#2C003E" stroke-width="3"/>
    <g transform="rotate(45)">
      <polygon points="0,-70 49.4,-35 49.4,35 0,70 -49.4,35 -49.4,-35" fill="url(#grad2)" stroke="#2C003E" stroke-width="3"/>
    </g>
  </g>
</svg>
